<?xml version="1.0" encoding="UTF-8"?>
<svg id="Hawk_Logo-new_Image" data-name="Hawk Logo-new Image" xmlns="http://www.w3.org/2000/svg" viewBox="0 0 652.68 788.09">
  <defs>
    <style>
      .cls-1 {
        fill: #fff;
      }
    </style>
  </defs>
  <g>
    <path class="cls-1" d="M109.1,680.84c-19.15-14.83-46.09-41.42-47.77-65.61l-2.63-37.86-.74-96.54,18.5-5.11.65,99.78,2.44,36.93c.71,6.41,2.77,11.88,6.18,17.34,5.83,9.17,12.91,17.11,20.84,24.78-2.09,8.81-.89,17.12,2.53,26.29Z"/>
    <path class="cls-1" d="M566.85,652.09l-14.72,14.94c-.13-7.85-1.43-14.63-4.76-20.98l8.5-9.55c5.54-6.22,9.83-13,13.4-20.57l2.2-36.12.91-105.4,18.47,5.47-.76,93.43-2,40.45c-.59,12.01-12.72,29.68-21.24,38.33Z"/>
    <path class="cls-1" d="M526.19,521.82c-109.28-17.99-226.22-22.05-336.14-6.97-18.61,2.56-36.28,5.62-54.47,9.76-.95-.3-2.13-1.12-2.37-1.78-.28-.76.74-2.5,1.78-2.76,114.59-28.37,243.48-27.68,359.62-8.9l32.24,6.03c.89.17,1.92,1.77,1.89,2.56s-1.38,2.24-2.54,2.05Z"/>
    <path class="cls-1" d="M516.33,693.92c-3.42.5-7.83.44-11.28.19l-5.16-2.23c-12.68-4.67-20.71-17.51-19.64-30.87,1.06-13.35,10.8-24.67,24.12-27.51l2.94-.65c3.89-.65,7.11.07,9.16.56,13.42,3.16,23.31,14.1,24.39,27.7,1.08,13.67-7.59,26.94-20.79,31.19l-3.74,1.62ZM502.56,648.05c7.84-3.93,14.87-5.24,22.86-4.33-7.11-5.59-15.75-6.47-23.56-3.58-.18,2.81-.12,5,.7,7.91ZM505.1,672.96c1.39-2.47,2.2-5.08,2.42-8.21-7.18-5.08-10.76-12.68-11.41-21.52-2.49,1.89-4.65,4.1-6.3,6.72.66,10.19,6.34,17.95,15.29,23.01ZM534.98,659.35l-2.45-7.59c-9.83-4.26-18.01-3.54-27.99,1.5,1.64,2.75,3.49,4.78,5.87,6.9,8.08-3.95,16.17-4.07,24.57-.81ZM501.81,677.32c-7.86-4.08-12.04-10.01-15.71-17.29-1.48,9.01,2.27,17.06,8.59,22.5,3.11-1.54,5.26-3.06,7.12-5.21ZM509.81,688.21c8.17-6.33,11.86-15.19,11.72-25.38-3.09.21-5.79.96-8.37,2.28-.94,8.78-5.27,16.06-13.03,20.79,3.07,1.56,6.18,2.35,9.69,2.31ZM535.25,665.88c-3.03-1.59-5.35-2.43-8.21-3,.28,8.7-2.26,15.77-7.15,23.46,8.49-3.28,14.25-10.99,15.36-20.46Z"/>
    <path class="cls-1" d="M178.65,663.11c0,17.55-14.22,31.77-31.76,31.77s-31.76-14.23-31.76-31.77,14.22-31.77,31.76-31.77,31.76,14.23,31.76,31.77ZM170.88,672.6c-4.06-1.51-7.03-3.73-9.98-5.93-1.6,1.03-3.64,1.52-4.79.03-.99-1.28-.77-2.78.63-4.5l-4.01-7.17c-2.05.41-4-.47-4.35-2.2-.22-1.08,1.42-2.69,2.37-3.6l.02-7.01-.08-4.85c-11.99-1.76-23.39,5.19-27.79,16.09l9.91,5.84c1.63-.58,4.05-1.18,5.01.62.55,1.03-.18,3.15-.87,4.29l4,6.79c1.89-.05,3.96.43,4.39,2.29.26,1.11-1.02,2.73-2.36,3.66l-.07,11.72c12.08,2.08,23.85-4.98,27.97-16.07ZM161.67,658.28c2.56-1.15,4.19-.67,4.86.6.47.87.04,2.79-.27,4.31,1.14,1.4,4,2.9,6.17,3.61,1.78-12-4.74-23.2-15.8-27.58l-.05,7.41c1.91.33,3.82.91,4.14,1.96.51,1.68-.31,2.95-1.88,4.35.14,1.4,1.78,4.51,2.82,5.34ZM135.31,672.91l-3.08-5.08c-2.12.93-3.79.99-4.8-.17-.83-.96-.58-2.66.35-4.6l-6.56-3.98c-1.58,12,4.63,23.29,15.58,27.95.68-2.15.74-5.48.03-7.23-1.84-.44-3.72-1.17-3.88-2.3-.26-1.87.43-2.71,2.35-4.59Z"/>
    <path class="cls-1" d="M120.48,632.05l-6.52,6.62c-10.26-10.8-21.92-22.77-22.51-37.61l-1.57-39.09-.2-89.84,9.23-2.53.2,91.75,1.61,39.7c.21,5.1,2.1,9.47,4.96,13.61,4.35,6.24,9.1,11.45,14.81,17.38Z"/>
    <path class="cls-1" d="M538.56,634.59l-7.51-5.43c5.37-5.47,10.17-11.1,14.46-17.2,1.57-2.95,2.89-5.93,3.02-9.3l1.34-34.55.18-100.38,9.24,2.73-.17,97.04-1.45,36.34c-.44,10.94-11.19,22.64-19.1,30.75Z"/>
    <g>
      <path class="cls-1" d="M192.85,732.85l-48.39-27.14c8.28-.6,15.62-2.89,22.45-7.95,50.02,28.84,102.48,50.62,156.31,70.66,33.37-12.37,65.88-25.59,97.86-40.77,21.55-10.29,42.26-21.14,62.77-33.55,5.42,5.1,11.68,8.16,18.82,10-23.75,15.08-47.78,27.84-72.74,39.78-34.85,16.63-70.3,30.87-106.71,44.22l-52.51-20.2c-26.68-10.27-52.01-22.14-77.86-35.04Z"/>
      <path class="cls-1" d="M384.47,721.4l21.48.12c-26.51,12.85-53.29,23.86-81.12,34.45-27.49-10.45-54.64-21.45-81.42-34.36l21.38-.21,59.97,24.68,59.72-24.68Z"/>
    </g>
    <path class="cls-1" d="M201.58,597.59l-.15-21.2-9.43,14.84-9.43-14.77-.16,20.95-3.29.15v-27.6s3.59.18,3.59.18l9.4,15.09,9.11-14.65c.38-.61,2.46-.76,3.66-.68l.02,27.54-3.31.15Z"/>
    <path class="cls-1" d="M468.48,651.04c0,5.78-4.68,10.46-10.46,10.46s-10.46-4.68-10.46-10.46,4.68-10.46,10.46-10.46,10.46,4.68,10.46,10.46ZM462.41,651.04c0-2.44-1.98-4.42-4.42-4.42s-4.42,1.98-4.42,4.42,1.98,4.42,4.42,4.42,4.42-1.98,4.42-4.42Z"/>
    <path class="cls-1" d="M439.01,542.48c0,7.85-6.36,14.21-14.2,14.21s-14.2-6.36-14.2-14.21,6.36-14.21,14.2-14.21,14.2,6.36,14.2,14.21ZM432.57,549.7c3.6-4.89,3.05-11.64-1.16-15.84-3.59-3.57-9.6-3.57-13.19,0-4.36,4.33-4.68,11.26-1.03,16.02,2.02,2.63,4.86,3.95,7.85,3.88,2.78-.06,5.54-1.36,7.53-4.06Z"/>
    <path class="cls-1" d="M296.31,555.94c-.77.45-2.87.45-3.8-.03l-14.53-21.29-.18,21.53h-3.3s0-27.46,0-27.46l3.66.16,14.72,21.67.1-21.83h3.31s.02,27.23.02,27.23Z"/>
    <path class="cls-1" d="M401.97,544.4l-6.91-.12.09-3.16h10.1s0,12.39,0,12.39c-5.48,3.89-12.87,4.9-18.59,1.13-4.31-2.85-6.12-7.71-6.04-12.59.08-4.65,2.25-9.4,6.66-12.06,5.45-3.29,12.45-2.53,17.22,1.79l-2.29,2.59c-3.44-3.01-7.66-4.12-11.69-2.28-3.99,1.82-6.18,6-6.28,9.96-.11,4.22,1.69,8.52,5.64,10.56,3.8,1.97,8.16,1.25,11.94-.71l.15-7.5Z"/>
    <path class="cls-1" d="M339.48,542.01c.21,8.15-5.23,14.31-13.18,14.32h-8.7s-.01-27.67-.01-27.67h8.72c7.63-.02,12.97,5.5,13.17,13.35ZM332.53,550.59c4.65-4.4,4.39-12.52-.29-16.52-3.18-2.72-7.45-2.31-11.3-2.11v21c3.77.33,8.29.76,11.59-2.37Z"/>
    <path class="cls-1" d="M434.84,575.43c3.41,8.97,1.19,22.17-7.99,22.78-3.94.26-7.46-1.85-9.1-5.83-2.3-5.54-2.26-12.04.12-17.56,1.58-3.67,4.87-5.63,8.48-5.59,3.75.05,7.03,2.32,8.5,6.19ZM431.33,575.87c-1.01-2.29-3.28-3.65-5.57-3.45-1.83.16-3.93,1.6-4.78,3.65-3.41,8.23-.92,19.08,5.36,19.04,6.22-.04,8.47-11.34,4.99-19.24Z"/>
    <path class="cls-1" d="M262.72,548.95l-11.81-.03-2.99,7.37-3.59-.02,10.72-27.4,3.43.02,10.64,27.4h-3.6s-2.79-7.34-2.79-7.34ZM261.39,545.66l-4.64-12.02-4.69,12.12,9.33-.1Z"/>
    <path class="cls-1" d="M228.59,590.24l-11.91-.03-2.85,7.28-3.6-.15,10.57-27.05,3.41-.31,10.66,27.38-3.57.12-2.72-7.25ZM227.25,586.98l-4.65-12.16-4.67,12.19,9.32-.03Z"/>
    <path class="cls-1" d="M310.82,593.57c-1.95,3.69-5.65,4.9-9.26,4.61-3.38-.28-6.22-2.35-7.93-5.91l2.93-1.5c1.48,3.1,3.81,4.49,6.55,4.25,2.85-.25,5.18-2.03,5.44-5.35.12-1.52-.33-3.92-1.24-5.12-2.49-3.28-7.9-2.14-12.36.94v-15.59s16.28-.04,16.28-.04l.16,3.1h-13.18s-.07,7.45-.07,7.45c3.51-1.32,7.7-1.71,10.77.93,3.29,2.84,4.01,8.23,1.9,12.22Z"/>
    <polygon class="cls-1" points="373.82 543.67 362.15 543.77 362.22 553.15 374.7 553.15 375.01 556.33 358.84 556.35 358.83 528.64 374.88 528.64 374.89 531.85 362.17 531.85 362.17 540.5 373.77 540.51 373.82 543.67"/>
    <path class="cls-1" d="M472.48,579.69c6.04-.44,10.12,2.94,10.58,8.34.34,3.99-1.69,7.71-4.95,9.26-3.52,1.68-7.82,1.1-10.44-1.56-2.46-2.5-3.91-7.17-1.9-10.61l9.4-16.07,2.87,1.58-5.56,9.07ZM479.69,588.81c-.08-3.79-2.92-6.08-5.95-5.95-3.18.14-5.52,2.82-5.42,6.25s2.66,6.15,5.98,5.96c3-.17,5.47-2.51,5.39-6.26Z"/>
    <path class="cls-1" d="M237.91,554.56c-2.26,2.29-5.74,2.78-8.61,2.16-2.75-.59-5.43-2.55-6.56-5.55.89-.62,2.45-1.43,2.79-1.39,1.37,1.87,2.74,3.35,4.41,3.81,1.74.48,4.53-.18,5.64-1.52,2.04-2.44.87-5.42-1.53-6.68l-6.5-3.42c-2.28-1.2-3.79-3.85-3.88-6.14-.1-2.53,1.12-5.11,3.5-6.57,4.08-2.51,9.41-1.27,12.34,2.85-.55.47-2.09,1.41-2.65,1.58-1.79-1.55-3.66-2.64-5.88-2.47-1.7.13-3.41,1.66-3.75,2.9-.49,1.79.4,4.02,2.03,4.87l6.6,3.41c4.4,2.27,5.87,8.29,2.06,12.15Z"/>
    <path class="cls-1" d="M410.58,597.62l-16.64-.07,12.18-16.54c2.03-2.76.9-6.85-1.61-8.07-3.05-1.48-6.33-.06-7.77,3.24-.31.74-2.65-.31-2.86-1.1,1.07-3.38,3.9-5.42,6.69-5.71,3.38-.35,6.68.43,8.57,3.4,1.92,3,1.73,7.24-.38,10.14l-8.31,11.49,10.19.18-.07,3.03Z"/>
    <path class="cls-1" d="M442.28,597.52l11.85-16.03c1.46-1.97,1.76-5.22.3-7.27-1.04-1.47-3.38-2.01-5.22-1.73-1.68.26-3.13,1.71-4.34,3.78l-2.85-.68c.99-3.65,3.8-5.7,6.63-6.18,3.83-.65,7.2.58,9.13,4.03,1.63,2.92,1.18,6.91-.81,9.66l-8.28,11.41h10.29s.01,3.11.01,3.11l-16.69-.1Z"/>
    <path class="cls-1" d="M257.41,570.21l-9.13,16.59v10.66s-3.35.03-3.35.03v-10.67s-9.25-16.72-9.25-16.72l3.75-.06,7.28,13.24,6.91-12.66c.39-.71,2.28-.83,3.78-.42Z"/>
    <polygon class="cls-1" points="351.7 596.57 363.9 573.02 350.87 572.94 350.81 569.87 369.24 569.92 354.53 598.24 351.7 596.57"/>
    <path class="cls-1" d="M338.81,597.59l-.05-23.06-4.63,3.45c-.73.55-2.48-1.45-2.21-2.32l6.8-5.41c.6-.48,2.96-.36,3.41-.21v27.41s-3.33.14-3.33.14Z"/>
    <path class="cls-1" d="M280.95,597.59l-.05-23.06-4.68,3.49c-.69.51-2.43-1.49-2.15-2.36l6.8-5.41c.6-.48,2.96-.36,3.42-.21v27.41s-3.33.14-3.33.14Z"/>
    <rect class="cls-1" x="346.52" y="528.63" width="3.35" height="27.71"/>
    <rect class="cls-1" x="316.97" y="586.39" width="10.63" height="3.19"/>
    <polygon class="cls-1" points="371.31 603.94 368.32 603.1 371.43 593.97 374.6 594.84 371.31 603.94"/>
    <g>
      <path class="cls-1" d="M294.38,363.95l-10.73,38.97-27.13,1.49-5.35-20.22-13.83-51.47-4.27-14.3,13.5-.53,14.63-.62,11.22,50.56,12.26-47.57.6-3.37,17.71-.39,2.45,9.11,10.72,39.52,11.35-48.76,25.51.02-14.2,55.49-8.09,30.04-25.38.18-7.63-27.46c-.93-3.69-1.41-7.14-3.34-10.68Z"/>
      <path class="cls-1" d="M598.26,411.18l.62,8.61.65,17.48-26.87-6.57-22.43-42.07-7.46-13.4.56,16.88.68,12.37.97,19.54-24.94-4.93-2.33-41.73-.46-7.46-1.08-20.89-.66-11.1-.67-10.9,27.24,3.61,24.44,45.21c1.46,2.7,2.08,5.12,4.53,7.78l-1.45-24.39-.75-9.03-.65-9.21-.45-6.85,25.8,3.29.67,10.94.72,11.69.94,15.41.82,12.33.85,12.85.7,10.53Z"/>
      <polygon class="cls-1" points="62.14 420.74 63.12 406.24 63.93 394.2 64.95 378.56 65.75 367.7 67.96 336.74 96.5 332.25 95.59 344.66 94.22 366.91 120.91 362.16 123.06 336.42 123.79 328.58 132.78 327.64 151.11 325.5 150.31 334.31 144.81 417.86 116.47 423.62 119.22 385.77 105.65 388.07 92.64 390.64 91.51 405.8 90.25 429.34 61.01 437.27 62.14 420.74"/>
      <path class="cls-1" d="M18.23,473.42c42.61-14.54,85.34-28.13,129.65-33.42l1.12,9.14c-15.26,1.81-29.58,4.42-44.54,8.03-33.84,8.17-66.43,18.66-99.62,31.04l23.66-91.25L0,333.5c27.72-9.48,55.72-16.7,84.33-22.9,62.74-13.09,126.05-20.44,190.49-22.25l.24,9.25c-57.73,1.53-114.89,7.82-171.65,18.57-30.73,6-60.75,13.23-90.82,22.86l25.66,57.05-20.01,77.34Z"/>
      <path class="cls-1" d="M504.8,438.79c16.52,1.88,31.97,4.88,48.04,8.78,27.64,6.71,54.08,15.08,81.61,24.64l-20-77.34,25.64-57.01c-24.33-7.85-48.19-14.04-72.75-19.48-51.09-11.03-102.57-17.92-154.7-20.65l-21.18-.66.11-9.21,21.08.63c51.82,2.68,103.03,9.46,153.87,20.27,29.25,6.37,57.76,13.89,86.18,23.54l-28.5,63.45,23.66,91.24c-32.17-12.05-63.84-22.24-96.67-30.35-15.9-3.93-31.24-6.83-47.45-8.71l1.09-9.15Z"/>
      <polygon class="cls-1" points="438.95 407.37 408.9 404.76 391.92 374.82 383.98 383.42 384.13 403.55 372.39 402.68 357.9 402.27 357.93 316.57 384.09 316.9 384.13 349.95 407.38 317.84 436.41 319.71 414.83 348.2 408.53 357.03 438.95 407.37"/>
      <polygon class="cls-1" points="499.22 380.1 469.57 376.61 469.55 390.99 508.3 396.88 508.89 417.2 444.26 407.81 443.7 376.15 442.08 337.93 441.57 320.13 476.75 322.91 503.31 325.51 505.37 345.85 468.4 341.91 468.62 356.19 499.09 360.05 499.22 380.1"/>
      <path class="cls-1" d="M368.82,477.52l-17.57-.53-.07-28.36.35-1.36c.07-.26-.87-.88-1-.64l-.81,1.51-17.56,28.48-18.63-30.27-.14,30.57-16.85.15-.12-47.12-.18-8.83,21.52-.1,6.78,11.57,7.97,14.54,7.93-14.38,6.8-11.78,21.86.69-.16,32.64-.14,23.25Z"/>
      <path class="cls-1" d="M190,463.83l.36-11.81,28.77-3.22v17.18s-.33,15.94-.33,15.94l-7.22,1.64-38.46,6.65c-6.08.93-11.7-2.34-13.94-7.98l.74-22.06.68-18.23c2.72-5.9,8.41-10.37,14.86-11.26l27.16-3.76c5.18-.72,9.98-1.03,15.31-.28l.23,12.57-33.08,4.26c-2,.26-5.67,1.75-5.78,4.03l-.61,12.93-.73,12.76c.88.71,2.59,1.47,3.43,1.32l20.56-3.62.11-8.53-12.06,1.46Z"/>
      <g>
        <path class="cls-1" d="M494.69,480.56c.03,2.36-2.08,5.71-3.9,7.03-2.21,1.61-5.06,2.64-7.66,3.39l-43.55-7.87-.09-13.72,33.34,6.51c.75.15,2.69-.38,3.21-.92,1.34-1.38,1.48-6.1-.54-8.02l-26.72-5.87c-4.18-1.05-9.47-3.42-9.91-8.37-.52-5.84-1.29-12.68.16-18.55,1.31-5.28,9.76-7.79,14.55-7.15l15.94,2.13c7.51,1,14.61,2.63,21.71,5.42l.1,12.37-29.46-5.9c-.88-.18-2.32.08-2.94.45-.72.44-1.14,2.5-1.23,3.39-.29,2.98.9,4.4,3.54,5l22.56,5.13c4.92,1.12,10.6,5.42,10.68,10.53l.22,15Z"/>
        <polygon class="cls-1" points="422.66 459.73 409.44 458.17 399.2 457.27 399.27 466.06 430.28 469.23 430.33 482.68 380.27 478.07 380.32 422.22 394.7 422.83 429.26 425.37 429.38 438.57 399.21 435.94 399.06 444.84 422.68 447.26 422.66 459.73"/>
      </g>
      <polygon class="cls-1" points="346.88 305.2 337.82 305.26 337.7 290.76 323.47 290.73 323.36 305.31 314.26 305.25 314.36 270.26 323.39 270.14 323.48 283.62 337.71 283.7 337.76 270.28 346.7 270.36 346.88 305.2"/>
      <path class="cls-1" d="M211.27,391.44l-26.78,3.35-5.55,17.33-28.32,4.75,17.53-53.69,14.42-41.06,35.82-2.48,12.37,42.52,6.84,23.33,5.87,19.81-28.11,2.61-4.09-16.47ZM207.17,371.77l-4.67-16.49-3.13-12.65-9.7,31.34,8.04-.73,9.46-1.46Z"/>
      <path class="cls-1" d="M246.27,470.17l-3.49,10.17-19.15,2.02,3.71-12.04,16.53-46.43,27.57-1.97,15.3,43.02,3.99,12.65-19.58.5-3.37-9.62-21.5,1.69ZM264.57,456.37l-6.96-19.93-7.48,20.82,14.44-.88Z"/>
    </g>
    <path class="cls-1" d="M365.97,692.96c-5.25,1.52-10.49,2.48-15.73-.18-15.83-4.14-26.67-21.85-22.67-37.15,3.3-12.65,13.11-22.35,26.07-24.37,3.43-.85,6.38-.3,9.34.05,13.97,2.19,23.72,13.06,26.38,26.6.68,3.45.67,5.54,0,8.92-2.52,12.67-10.91,22.52-23.4,26.13ZM358.4,657.72l15.06-15.12c-4.48-3.47-9.49-5.21-15.15-5.47.23,5.98-1.35,10.93-4.69,15.96l4.79,4.63ZM348.94,648.41c2.06-2.89,2.94-6.04,3.24-10.27-3.56.93-6.14,2.19-9.1,4.36l5.86,5.91ZM344.43,653.05l-5.97-5.97-4.31,8.99c4.26-.05,7.01-.84,10.28-3.02ZM383.07,662.4c-.01-5.67-1.57-11.04-5.38-15.31l-14.83,15.18,4.62,4.91c4.82-3.53,9.7-5.13,15.58-4.77ZM353.73,662.38l-4.69-4.68c-4.79,3.43-9.9,4.78-15.77,4.82.36,5.58,1.67,10.72,5.34,15.04l15.13-15.18ZM358.31,687.21c-.33-6.53,1.49-10.92,4.68-15.53l-4.68-4.71-15.14,15.19c4.43,3.58,9.76,5.35,15.14,5.05ZM377.88,677.8c2.38-3.53,3.43-5.54,4.15-9.4-4.18.62-6.38,1.3-10.3,3.21l6.15,6.19ZM373.54,682.23l-6.18-6.16c-1.74,3.68-2.62,6.35-3,10.64,3.69-1.21,6.1-2.46,9.19-4.48Z"/>
    <path class="cls-1" d="M252.61,663.13c0,17.54-14.21,31.76-31.75,31.76s-31.75-14.22-31.75-31.76,14.21-31.76,31.75-31.76,31.75,14.22,31.75,31.76ZM217.49,646.23c.56-.83.73-3.75.07-4.38-1.06-1.01-3.02-2.31-4.4-3.07-5.59,2.04-10.28,5.54-13.43,10.24-.1,1.2.28,3.69,1.09,4.39.81.7,2.85,1.27,4.36,1.64l12.31-8.82ZM237,655.29c2.94-1.1,4.35-1.97,4.86-3.96,1.09-4.23-7.36-10.47-13.49-12.67l-4.06,3.06c-.59.9-.19,3.84.18,4.84l12.52,8.73ZM228.09,672.65l4.27-12.98-11.57-7.82-11.35,8.09,4.42,12.86,14.23-.14ZM206.92,672.34l-3.93-11.3-4.29-1.13c-.91-.24-2.25,1.44-3.1,2.35.02,6.19,1.51,12.96,6.49,17.27,1.58.92,4-1.12,4.59-2.32.8-1.65.88-3.07.25-4.87ZM236.34,678.95c.45.81,3.46.88,4.08.14,3.6-4.27,5.91-10.6,5.81-16.71-.59-1.14-2.67-2.51-3.83-2.43-1.23.08-3.71,1.14-4.11,2.33l-4.25,12.51,2.31,4.17ZM228.75,687.33l2.27-4.86c-.41-.88-1.71-2.75-2.4-3.5h-15.65s-2.23,3.43-2.23,3.43l2.21,4.92c4.98,1.41,10.66,1.4,15.79,0Z"/>
    <path class="cls-1" d="M437.61,695.92l-9.9-22.64c-7.16,2.22-15.43-.52-18.57-7.49l-6.72-14.88c-2.21-4.9-.53-10.35,4.53-12.57l14.94-6.56c5.11-2.24,10.17.3,12.27,5.32l6.35,15.13c2.86,6.82-.65,14.63-7.33,18.48l9.76,22.61-5.34,2.6ZM428.53,666.41c5.15-2,8.65-6.98,6.31-12.34l-7.11-16.27c-.67-1.54-3.94-.37-5.17.18l-12.78,5.67c-1.37.61-2.81,2.32-2.18,3.79l6.11,14.35c1.24,2.91,3.48,4.94,5.86,5.73,3.29,1.1,5.77.12,8.97-1.12Z"/>
    <path class="cls-1" d="M288.12,668.38c8.19.37,19.04,4.27,19.82,10.97,1.64,14.01-28.8,18.2-41.13,8.13-2.3-1.88-3.56-4.62-3.41-7.53.36-6.96,11.42-11.27,19.93-11.54v-30.64c0-2.44,1.18-4.33,3.06-4.66.68-.12,1.96-.18,4.5,1.08l20.27,8.76c1.08.47,3.1,1.61,3.9,2.47l.25.26c.88.94,1.03,2.42.22,3.42-.92,1.14-2.08,2.02-3.51,2.69l-23.83,11.28-.06,5.32ZM310.37,647.5l-22.29-9.79v20.66s22.29-10.86,22.29-10.86ZM288.15,672.72l-.17,6.76c-.02.93-1.68,2.24-2.49,2.08-.7-.13-2.02-1.36-2.04-2.15l-.16-6.64c-6.56.23-15.45,3.62-15.55,7.77-.11,4.41,9.43,8.06,15.39,7.99l5.71-.07c6.86-.08,15.8-4.26,14.83-8.4s-9.39-6.88-15.52-7.35Z"/>
  </g>
  <g>
    <g>
      <path class="cls-1" d="M174.22,276.2l-20.72-5.92,42.25-15.59,18.84-7.76c-9.87,1.37-18.38,4.48-27.74,6.9l-45.02,11.64-20.31-9.33,89.34-21.45c30.79-7.39,60.49-17.1,90.39-29.87-16.01,1.66-30.81,5.14-46.44,6.01l-18.35.08c-8.66.04-16.06-5.91-21.26-12.5,16.58-1.9,31.96-3.72,48.06-7.74-4.5-1.01-8.77-.51-13.2-.27l-8.07.43-25.77.76-5.59.12-9.26-.1-5.3-.36c-8-5.65-14.58-12.22-20.55-19.58l9.3.76,21.81,1.43,12.85.62,12.67.42c3.08.1,5.99,1.49,9.34-.52l-16.14-2.78-54.37-10c-1.56-.29-4.64-.84-5.51-1.93-5.51-6.92-10.17-13.88-14.3-21.93l82.89,16.74c-3.14-2.2-6.67-3.29-10.46-4.49l-42.91-13.62-37.03-11.49c-4.23-9.16-7.54-17.96-10.11-28.11l84.43,32.34,19.58,6.36c-3.11-2.51-6.56-3.94-10.28-5.77l-35.04-17.21-30-14.99-35.73-18.43c-2.5-10.71-4.69-20.81-5.91-32.08l56.53,33.18c15.56,9.13,31.34,16.73,47.56,24.42,3.2,1.51,5.86,2.88,9.53,3.65-5.09-4.19-10.16-6.87-15.58-10.61L121.32,30.61l2.42-22.12c.28-2.59.34-4.98,1.51-7.69l94.01,65.52,62.11,42.5,34.05,22.36c6.04,12.2,11.74,24.27,20.96,34.12l5.68,6.08,7.91,7.47c9.31,8.8,21.24,13.75,33.71,17.73-1.26-2.56-3.62-3.6-5.42-5.42l-9.43-9.57-7.61-8.42,9.51.27c16.53.47,32.77,2.77,48.85,6.54l17.95,5.52c7.04,2.16,13.37,5.92,19.46,9.99,3.72,2.48,8.14,8.83,8.03,13.63,7.34,4.52,20.14,11.31,16.79,19.23-1.53,3.61-4.98,6.42-8.11,8.93l.25-2.48c.06-.57-.67-1.78-1.2-2.04l-6.14-3.06c-9.76-3.32-19.46-4.24-29.78-4.79-14.31-.76-28.17,2.18-41.78,6.95-27.07,9.49-51.65,17.14-80.85,17.05l-5.15-.02-20.23-1.37-15.55-2.17c-1.17.19-1.46.66-.33,1.15l11.12,3.6-11.87,11.54c-7,6.81-14.48,12.67-22.98,17.59-5.54,3.21-11.72,5.41-18.18,4.91l-6.69-.51,7.58-6.98,12.25-12.26c2.42-2.42,4.59-4.55,6.54-7.81l-14.3,8.65-20.88,14.24c-2.67,1.82-6.57,4.24-9.88,3.94-5.8-.54-11.37-2.04-17.2-3.84l35.93-21.35,8.85-5.19c-.92-.59-2.59-.94-3.33-.61l-26.31,11.93-25.19,11.83c-.93.11-3.17.33-4.17.04ZM442.17,206.48c3.06.75,5.49,1.81,7.88.04-13.3-4.6-25.86-8.21-39.71-10.96,3.24,3.17,7.11,4.67,11.07,6.73.07,6.59,4.82,11.38,11.42,11.3,4.45-.05,7.72-2.51,9.34-7.11Z"/>
      <path class="cls-1" d="M80.04,301.5l-18.55,3.26,3.42-102.95c28.7-12.49,57.01-23.04,86.42-31.92l14.7,14.84c-28.46,8.34-55.61,17.92-83.13,29.44l-2.86,87.34Z"/>
      <path class="cls-1" d="M103,230.38l-1.47,67.36-9.28,1.53,1.66-74.94c14.91-6.56,29.34-12.39,44.53-17.95l4.74,8.05-40.17,15.95Z"/>
    </g>
    <polygon class="cls-1" points="377.25 290.68 364.57 290.7 364.6 298.39 379.99 298.55 379.92 305.28 355.64 305.08 355.71 294.83 355.88 270.18 380.94 270.34 380.04 276.93 364.85 276.79 364.77 284.27 377.23 284.38 377.25 290.68"/>
    <polygon class="cls-1" points="298.38 305.11 289.82 305.18 289.62 277.04 280.38 276.92 280.32 270.35 307.88 270.29 308.14 276.87 298.43 277.31 298.38 305.11"/>
    <g>
      <path class="cls-1" d="M368.15,81.35l33.95,40.92c2.53,3.04,4.76,5.97,8.45,8.09l-36.02-59.42,13.58-19.02,41.89,65.85c1.17,1.54,2.18,2.86,3.8,4.07l-19.91-43.85-16.78-36.03,8.05-7.56,9.96-9.33c8.74,26.12,18,50.62,29.53,74.92.78,1.65.87,2.8,3.16,3.9l-24-88.31,22.37-15.58,29.12,142.55-6.28,4.46c-14.17,8.79-26.9,18.95-38.51,31.02-19.03-6.94-38.16-10.7-57.95-12.74l-17.86-1.06c-2.3-5.52-5.36-11.18-5.38-17.25l-.04-13.44,4.51-22.69,25.66,22.44,13.23,10.89-7.18-9.53-27.76-33.27,10.42-20.02Z"/>
      <path class="cls-1" d="M589.25,302.33l-18.52-4.19-1.39-84c-36.31-15.33-73.29-27.41-111.81-37.33l17.15-14.58c36.65,10.01,71.96,22.02,106.56,36.94,4.04,1.55,6.25,4.74,6.46,9.02l1.56,94.13Z"/>
      <polygon class="cls-1" points="547.69 292.62 546.5 230.39 512.65 216.76 517.37 208.67 555.62 224.32 556.97 294.83 547.69 292.62"/>
      <path class="cls-1" d="M436.27,206.58c-.82,1.86-1.95,2.81-3.36,3.18-2.86.76-6.16-2.1-7.03-6.48l10.39,3.3Z"/>
    </g>
  </g>
</svg>