<?xml version="1.0" encoding="UTF-8"?>
<svg id="Layer_2" data-name="Layer 2" xmlns="http://www.w3.org/2000/svg" viewBox="0 0 901.67 834.76">
  <defs>
    <style>
      .cls-1 {
        fill: #f4f3fa;
      }

      .cls-2 {
        fill: #fefefc;
      }

      .cls-3 {
        fill: #fefdfb;
      }
    </style>
  </defs>
  <g id="Layer_1-2" data-name="Layer 1">
    <g>
      <path class="cls-3" d="M249.74,734.52c2.16-1.07,3.15-1.51,3.52-2.08.73-1.16.64-3.05-.31-3.5-1.28-.61-3.08-.3-5.03.41l-163.9,60.2c-7.65,2.81-14.16,1.19-21.11-2.23l-36.47-17.92,192.11-63.61c82.59-27.35,161.05-61.66,237.54-102.39,1.51-.8,1.99-1.98,2.72-2.13.96-.2.36-4.43-1.13-4.01-45.21,12.8-90.27,23.43-137.12,27.56-29.33,2.58-55.5-6.2-72.23-31.62,15.21-1.18,116.5-22.58,119.01-30.06.45-1.35-1-2.15-3.46-1.92-54.57,5.24-107.68,12.29-163.28,13.22-20.24-13.54-35.71-31.58-51.84-51.49,54.15,3.06,107,2.33,160.76,1.67,1.28-.02.85-4.83-1.21-5.16l-184.99-29.19c-15.07-18.87-26.99-38.6-38.01-61.06l203.48,37.83c1.73.32,2.62,1.18,3.87,1.13,1.08-.04,2.14-1.2,1.98-2.63-.11-1-1.31-2.56-3.42-3.22l-226.5-70.91c-11.43-24.72-20.34-49.54-26.9-76.46,21,8.34,257.83,104.09,260.2,96.56.38-1.22.17-2.76-2.26-3.6L18.48,263.44C10.25,234.22,4.65,205.41.49,174.84l134.69,83.3c12.29,8.24,150.48,83.69,153.33,78.59.39-.71.42-2.55-1.12-3.64l-150.31-106.55L0,125.7,6.08,41.75l392.91,288.76,84.94,58.07c32.96,78.09,89.47,158.11,177.62,178.85-21.42-22.49-40.76-40.12-58.16-64.24,14.21,2.55,26.95-2.18,39.72-.92l53.54,5.3c42.18,4.18,159.38,28.74,160.88,84.4l28.35,19.76c8.48,5.91,16.22,15.21,15.78,26.27-.48,11.9-8.01,21.62-16.55,29.89-1.79-8.52-7.81-14.38-16.56-17.29-58.82-19.57-121.74-13.42-177.71,13.33-31.32,14.97-60.76,28.59-93.79,39.41-67.07,21.97-136.36,26.96-205.78,14.07-2.19-.41-4.01.04-4.5,1.4s.12,2.88,2.06,3.54l30.02,10.27c-28.74,35.41-85.27,114.3-137.66,100.46,20.28-25.47,41.92-49.62,60.73-79.38-26.63,10.9-77.69,68.28-99.04,78.05-15.84,7.25-34.58-.47-50.16-4.5l106.95-83.02c-12.15-3.05-20.92,5.42-29.99,10.91l-95.5,57.72c-20.73,12.53-40.8-.56-68.05-7.15l143.63-71.21ZM803.91,590.87c3.66-1.24,26.56,1.26,17.16-4.27-.82-.48-1.68-2.74-3.35-3.3-31.14-10.41-62.18-19.08-95.39-25.26.3,15.08,25.45,8.47,29.98,32.03,1.89,9.83,10.67,17.04,18.89,19.01,26.29,6.3,27.32-16.37,32.72-18.2Z"/>
      <path class="cls-2" d="M711.05,372.79c2.08,2.66,8.63,4.37,7.7,2.75l-95.14-166.17,30.18-54.25,115.53,192.03c1.29,2.15,2.12,3.25,3.77,2.4,2-1.04,1.54-2.27.47-4.68l-97.87-220.84,40.55-48.6c27.34,76.56,50.82,152.1,89.72,224.96-17.61-87.22-44.99-167.34-66.23-250.69-1.62-6.34,3.52-10.1,7.69-13.65L789.63,0l84.56,394.14c1.55,7.24-2.3,11.46-7.05,15.11-34.27,26.35-64.61,56.12-90.58,90.6-4.52,6-9.9,5.31-16.51,3.03-56.5-19.45-115.23-27.07-175.39-26.64-25.05-49.61-16.55-95.34-8.11-148.27l101.81,91.54-92.41-121.48,22.43-56.5,102.67,131.24Z"/>
      <path class="cls-1" d="M786.15,589.42c-2.09,7.08-8.61,7.27-13.29,5.47-4.17-1.6-7.94-6.12-7.74-11.87,7.25,1.57,13.22,3.19,21.04,6.4Z"/>
    </g>
  </g>
</svg>