<?xml version="1.0" encoding="UTF-8"?>
<svg id="Layer_1" data-name="Layer 1" xmlns="http://www.w3.org/2000/svg" viewBox="0 0 1388.28 2024.29">
  <defs>
    <style>
      .cls-1 {
        fill: #f4f3fa;
      }

      .cls-2 {
        fill: #fbfcfe;
      }

      .cls-3 {
        fill: #f7f7fb;
      }

      .cls-4 {
        fill: #fff;
      }

      .cls-5 {
        fill: #f8f8fc;
      }

      .cls-6 {
        fill: #f3f2f9;
      }

      .cls-7 {
        fill: #fafbfd;
      }

      .cls-8 {
        fill: #edecf6;
      }

      .cls-9 {
        fill: #fefefc;
      }

      .cls-10 {
        fill: #fafafd;
      }

      .cls-11 {
        fill: #f8f9fc;
      }

      .cls-12 {
        fill: #fefdfb;
      }

      .cls-13 {
        fill: #f9fafd;
      }

      .cls-14 {
        fill: #feffff;
      }

      .cls-15 {
        fill: #f9f9fc;
      }
    </style>
  </defs>
  <g>
    <g>
      <path class="cls-4" d="M270.64,1683.67c-.17,36.47,6.64,62.95-12.71,59.7-11.17-1.87-11.66-21.85-20.41-29.32-4.39,6.33,5.13,27.78-8.07,28.96-3.82.34-8.99-2.27-8.79-7.87,1.44-39.77-7.3-59,13.74-56.09,12.39,1.71,10.75,21.09,19.22,29.95,4.37-8.34-4.28-27.83,7.68-29.97,2.56-.46,9.35.09,9.33,4.64Z"/>
      <path class="cls-4" d="M340.92,1735.03c-9.03,12.86-28.72,9.21-42.06,6.69,1.65-17.71-6.57-42.73,1.36-58.58,5.07-10.14,35.07-6.11,40.92,3.66,7.17,11.97,7.83,36.76-.21,48.23ZM328.99,1725.81c1.77-10.65,1.98-19.19.18-28.92-.91-4.95-13.58-7.96-14.84-2.62-2.56,10.79-2.48,23.94.42,34.42,1.41,5.09,13.16,2.11,14.23-2.87Z"/>
      <path class="cls-4" d="M207.45,1743.8c-11.53-.36-5-15.76-19.31-13.87-13.07,1.73-9.33,15.24-19.14,13.73-2.66-.41-7.36-3.36-6.05-7.84,5.11-17.44,5.55-35.57,12.69-52.62,2.94-7.03,22.66-6.22,25.14.75,6.43,18.09,9.88,35.43,14.2,53.49,1.14,4.74-4.87,6.44-7.53,6.36ZM193.49,1717.41c-.87-7.15-1.19-14.24-5.19-21.49-4.12,7.18-4.5,14.2-5.52,21.25,4.21.83,6.41.94,10.71.24Z"/>
      <path class="cls-4" d="M456.21,1724.93c-.57-5.84-7.15-8.01-7.36-14.08,4.07-5.37,18.08-7.48,21.79.34s2.3,20.39-4.33,27.04c-8.44,8.47-32.07,9.94-37.92-3.09s-5.8-34.25-.29-46.98c5.96-13.74,30.45-11.89,38.17-3.72,3.78,4,2.99,8.55,1.45,11.14-4.32,7.26-21.55-9.7-25.48-.66-1.87,4.31-8.92,37.96,7.09,36,2.18-.27,7.26-1.95,6.87-6Z"/>
      <path class="cls-4" d="M521.85,1734.56c-5.22,13.76-34.83,12.49-40.02-.27-5.58-13.72-5.54-32.64.4-45.91s33.33-13.47,39.31-.85c6.12,12.91,5.85,32.45.32,47.03ZM509.1,1726.89c2.25-10.14,5.48-35.02-7.46-34.82-13.16.2-7.74,22.31-7.57,34.87,2.58,5.02,13.56,6.55,15.02-.05Z"/>
      <path class="cls-4" d="M413.43,1714.82c-1.65,6.18-16.84-.17-20.06,4.82-1.51,2.35-1.86,7.59.08,10.02,3.25,4.07,13.06-1.36,23.47,2.54,2.57.96,3.95,8.21.17,9.55-12.07,4.28-26.73,2.89-39.47.09l-.37-60.28c6.63-3.12,43.09-7.71,41,5.95-1.66,10.88-37.1-1.59-25.21,15.49,3.71,5.33,15.92.77,19.69,4.6,1.53,1.55,1.32,4.84.69,7.22Z"/>
      <path class="cls-4" d="M154.97,1736.75c-8.01,9.73-35.12,11.1-38.87,1.97-7.24-17.66,25.12-.35,27.21-12.3,2.71-15.48-24.31-.47-29.63-19.99-2.1-7.71-1.48-18.4,7.26-23.69,8.04-4.87,33.06-7.22,34.97,3.61,2.87,16.26-26.8-2.04-27.28,12.62-.37,11.33,21.32,2.78,27.35,13.79,3.53,6.44,4.8,16.92-1.01,23.98Z"/>
      <path class="cls-7" d="M368.78,1737.33c0,4.69-5.64,5.26-7.91,5.4-3.09.19-8.05-1.04-8.07-5.89l-.2-48.17c-.02-5.15,1.67-9.18,6.6-9.66,3.84-.37,9.57,1.04,9.57,6.92v51.39Z"/>
    </g>
    <circle class="cls-2" cx="585.03" cy="1709.5" r="11.14"/>
    <g>
      <path class="cls-4" d="M691.54,1714.48c-5.42,7.11-3.1,27.16-14.62,27.38-13.64.26-9.01-21.33-15.44-24.69-3.79,6.5,3.81,22.58-7.06,24.68-2.77.53-9.37-.43-9.2-5.39,1.29-37.16-8.51-60.01,12.75-58.61,14.11.93,11.78,23,18.43,33.75,7.11-8.91,4.67-30.6,16.71-33.22,4.26-.93,15.08-1.59,15.1,5.02l.1,48.18c.01,5.5-2.31,10.49-6.98,10.45-14.91-.12-5.86-21.2-9.78-27.55Z"/>
      <path class="cls-4" d="M1250.98,1701.54c9.71-1.48,18.83-1.3,24.33,4.95,5.8,6.59,7.39,17,2.62,26.65-6.28,12.69-32.17,15.02-39.49.67-6.45-12.65-4.38-30.69-.21-43.17,5.47-16.4,31.99-15.67,36.84-9.81,12.03,14.54-28.35,4.13-24.09,20.7ZM1253.76,1714.26c-4.28,2.86-3.67,9.11-1.54,12.75,1.38,2.36,5.74,3.63,9.4.84,2.57-1.96,3.33-7.02,1.96-10.92-.93-2.65-5.3-5.68-9.81-2.67Z"/>
      <path class="cls-4" d="M758.52,1741.13c-11.86-1.56-5.2-13.9-18.49-13.63-11.55.23-8.07,12.51-16.98,14.21-2.53.48-9.54-.59-8.78-4.51,3.6-18.48,7.84-36.05,14.12-54.39,2.39-6.99,21.09-7.59,23.95-.42,7.14,17.87,10.06,36.2,14.82,54.87.9,3.52-6.34,4.18-8.64,3.88ZM744.42,1713.95c.04-5.5-.07-10.78-3.96-15.75-2.42,4.77-5.36,10.45-4.22,15.42.5,2.17,6.26,1.46,8.17.33Z"/>
      <path class="cls-4" d="M1177.34,1734.22c-8.86,10.65-30.6,13.75-38.45.82s-6.33-31.53-2.72-44.5c2.73-9.82,12.33-12.77,20-12.87,7.89-.1,18.07,3.06,20.38,12.02,3.69,14.28,3.18,28.56.79,44.53ZM1157.62,1691.02c-12.25-1.86-7.9,30-6.73,35.77.65,3.21,6.07,2.51,8.1,1.96,9.1-2.46,9.14-36.14-1.36-37.73Z"/>
      <path class="cls-4" d="M913.89,1736.99c-8.51,8.99-39.01,7.66-38.42-5.65.52-11.82,20.54,3,26.59-4.28,2.42-2.91,1.97-7.46-.23-11.21-3.99-6.81-22.14,4.85-23.87-1.27-2.37-8.37-4.75-27.4,2.36-33.76,8.24-7.37,47.12-2.97,34.99,7.97-4.98,4.49-17.09.58-22.62,2.71-2.6,1-2.62,8.83.08,9.36,5.13,1.01,12.88-1.16,17.36,2.48,11.44,9.31,10.09,26.97,3.76,33.66Z"/>
      <path class="cls-4" d="M1190.48,1740.16c-11.85-7.14.37-25.44,9.97-30.1,6.21-3.01,14.11-8.69,12.57-14.99-2.69-10.96-20.64,5.03-25.04-1.23-1.48-2.11-1.37-6.91,1.78-9.86,8.34-7.83,26.07-9.17,34.74-.02,9.51,10.03,2.93,25.15-7.22,31.67-5.55,3.56-10.62,6.17-14.27,11.91,7.55,2.66,22.08-3.56,25.66,5.32,6.01,14.9-35.55,8.91-38.18,7.32Z"/>
      <path class="cls-4" d="M1088.76,1739.89c-9.11-4.98.7-20.91,7.07-24.95,6.4-4.06,23.07-13.21,16.7-21.63-5.71-7.54-22.01,7.96-24.93.16-3.82-10.21,9.12-15.62,17.73-15.66,9.46-.04,18.28,2.23,21.93,10.37,3.39,7.57,2.28,17.78-4.6,23.53l-18.8,15.7c5.69,3.6,23.87-1.94,24.97,7.07,1.53,12.51-36.14,7.57-40.06,5.42Z"/>
      <path class="cls-4" d="M789.77,1742.08c-14.7.25.29-12.97-16.14-41.94-2.93-5.17-8.69-12.38-7.48-18.29.88-4.28,9.87-3.05,12.47-1.07,4.54,3.46,5.43,10.73,9.15,17.18,4.22,7.32,7.17-10.95,13.25-17,2.48-2.47,11.24-5.23,13.01-.48,4.33,11.61-18.61,25-16.16,52.63.51,5.76-3.45,8.88-8.1,8.96Z"/>
      <path class="cls-4" d="M1014.24,1741.76c-16.46-1.42,3.53-38.83,8.53-47.94-4.62-4.88-23.35,2.74-25.14-6.45-2.78-14.29,41.69-9.53,44.09-6,4.85,7.12-12.76,22.33-18,53.23-.84,4.98-5.57,7.51-9.49,7.17Z"/>
      <path class="cls-14" d="M982.31,1742.1c-15.04.69-4.63-29.83-8.46-43.73-3.94,1.53-6.56,3.71-8.93,4.09-4.13.66-5.1-3-5.53-5.44-1.21-6.91,23.92-26.03,27.87-15.19,5.77,15.82-.28,35,2.34,51.46.86,5.38-3.85,8.66-7.29,8.82Z"/>
      <path class="cls-4" d="M858.47,1742.17c-16.52.1-5.03-29.55-10.02-43.94-3.31,1.44-6.7,3.5-8.61,1.61-2.87-2.85-1.2-6.78.41-9.89,3.2-6.18,19.21-16.87,22.91-7.72,6.21,15.36-.14,34.73,2.4,50.95.86,5.53-3.64,8.97-7.08,8.99Z"/>
      <path class="cls-6" d="M954.57,1717.88c-8.32,3.48-22.29,4.11-28.82-.9-7.45-5.7,13.06-14.92,28.28-7.73,2.18,1.03,4.62,6.93.54,8.63Z"/>
      <path class="cls-11" d="M1058.76,1730.42c4.12,8.48-.54,18.7-9.58,22.42-3.21-7-4.2-15.46-2.06-22.85,1.02-3.52,9.67-3.64,11.65.43Z"/>
    </g>
  </g>
  <g>
    <g>
      <path class="cls-4" d="M659.62,1462.44l-.55,92.76c-.09,15.2-30,12.69-47.37,12.73-6.49.02-11.01-3.9-11.04-10.78l-.85-215.91c-.03-8.31,6.64-12.33,13.94-12.73l47.63-2.62c9.91-.55,15.34,5.2,18.05,13.71,12.96,40.69,22.34,81.31,40.24,123.16l35.9-125.42c2.45-8.56,9.25-12.88,18.13-12.59,21.26,6.74,62.06-4.99,62.05,16.52l-.06,213.95c0,19.56-30.4,13.14-49.88,10.95-5.7-.64-9.94-4.59-10.01-10.85l-1.2-104.18c-13.79,32.58-18.01,76.87-33.78,107.99-5.37,10.58-40.44,10.42-45.85-.27-15.45-30.5-22.25-75.23-34.31-105.91-4.81.03-1.01,5.67-1.03,9.49Z"/>
      <path class="cls-4" d="M272.75,1455.95c26.69-5.7,51.37-10.12,77.25-10.95,4.59-.15,6.93,6.91,6.95,10.54l.61,119.81c.04,8.53-9.94,11.53-15.26,13.71-7.66,3.14-14.56-.48-21.82-4.81-7.22.91-11.57,7.98-18.79,9.19l-88.91,14.93c-7.42,1.25-14.91-.55-20.06-5.11s-7.23-12.36-7.26-20.5l-.7-180.27c-.07-18.6,13.58-30.71,31.09-33.62l44.07-7.33,68.83-9.63c5.09-.71,18.34-2.17,20.73,2.92,1.98,4.21,11.58,46.94-7.7,49.73l-86.76,12.55c-5.83.84-9.49,4.71-9.48,10.96l.14,114.33c0,2.33,1.29,4.77,2.29,5.68,3.18,2.91,39.51-4.1,46.43-6.41,2.72-13.44,1.48-27,.76-40.33-5.85.46-18.45,5.21-21.22-1.5-5.39-13.05-2.07-28.23-1.17-43.87Z"/>
      <path class="cls-4" d="M451.17,1532.07c-10.51,3.13-4.52,40.7-17.9,44.95-8.89,2.83-48.36,9.35-54.5,1.46-2.68-3.45-.77-6.9.24-11.32l47.93-208.76c2.7-11.77,6.88-19.38,19.95-19.69,20.43-.48,40.87-2.62,61.47-4.57,7.62-.72,15.07,3.62,17.23,11.9l53.76,206.78c1.06,4.09.38,8.14-1.41,10.66-6.57,9.24-48.41,7.64-53.54,6.5-13.72-3.06-7.58-40.7-18.96-41.46-17.1-1.14-36.64-1.72-54.29,3.55ZM495.55,1475.19l-17.7-70.6-17.88,72.72c12.2.36,23.26,2.29,35.58-2.12Z"/>
      <path class="cls-4" d="M1199.11,1587.36c.05,7.88-4.74,14.81-8.51,17.89-5.2,4.24-13.51,5.19-20.52,4.07l-116.49-18.52c-16.62-2.64-13.26-22.62-12.65-42.46.23-7.35,5.61-10.52,12.28-9.66l84.2,10.88c2.51-7.72,7.6-33.43-1.59-37.93-33.78-16.53-92.65-1.89-92.22-44.76l.98-98.01c.12-11.76,16.35-17.61,27.16-16.35,38.59,4.5,75.18,11.14,113.32,17.83,6.76,1.19,13.29,4.46,13.76,11.8.75,11.71,4.58,45.6-9.62,42.84-28.4-5.52-55.87-12.46-85.65-14.21-3.12,12.86-3.07,26.06.88,38.73l68.1,13.2c11.35,2.2,25.89,10.17,25.96,23.4l.59,101.23Z"/>
      <path class="cls-4" d="M994.08,1485.62l-65.51-3.02c-.92,12.45-4.97,28.41,1.27,39.61,3.95,7.1,18.44,3.24,25.41,3.92,20.81,2.03,40.09,4.63,60.42,7.65,6.9,6.51,5.01,41.38,1.84,46.08-2.11,3.12-7.03,3.94-11.83,3.5l-122.28-11.26c-4.44-.41-8.19.35-11.83-1.97-2.7-1.72-5.38-5.73-5.38-10.97l.07-212.46c0-4.4,1.69-8.88,3.97-10.69,2.98-2.37,8.26-3.72,13.02-3.29l124.97,11.09c6.89.61,11.37,5.58,11.98,12.22.92,10.05,4.58,43.16-9.82,41.71l-79.92-8.02c-4.92,13.16-4.69,27.36-1.15,40.06,13.95,6.38,58.31-1.16,64.98,11.01,6.89,12.58,3.88,30.73-.21,44.85Z"/>
      <g>
        <path class="cls-4" d="M603.78,1177.51l-22,111.58c-1.39,7.06-6.54,11.68-13.71,12.18l-47.23,3.3c-8.69.61-14.82-3.29-16.81-11.6l-50.66-211.71c-4.95-20.68,40.61-14.78,54.29-17.27,4.22.92,7.61,3.46,8.65,8.04l29.12,128.44,22.43-128.33c1.3-7.46,6.72-12.36,14.07-12.52,37.3-.81,50.42-12.27,55.97,12.79l26.66,120.44,22.37-125.62c1.17-6.55,4.28-11.47,11.43-11.58l40.91.12c3.46.01,7.2,1.09,8.82,3.45,1.25,1.83,2.5,5.69,1.75,9.38l-43.6,215.01c-1.62,7.98-7.11,11.82-14.83,11.96l-50.42.91c-6.73.12-11.65-4.41-13.11-10.93l-24.09-108.05Z"/>
        <path class="cls-4" d="M1317.95,1366.41c-30.47-8.29-48.6-4.91-56.27-22.77-15.87-36.95-30.38-73.25-49.96-111.03-4.65,16.17,2.44,101.63-4.2,106.31-7.44,5.24-37.99-2.67-48.69-5.47-3.66-.96-6.91-5.18-6.91-9.55l-.04-220.9c0-5.8,5.45-8.33,10.28-7.61l38.75,5.83c6.38.96,12.22,4.97,14.94,11.11l55.7,125.78.4-110.99c.02-5.35,5.08-10.76,10.35-9.6,13.94,3.09,29.5,3.26,42.3,9.84,9.42,4.84,7.49,18.43,7.45,27.87l-.81,200.05c-.03,7.21-6.23,13.03-13.28,11.11Z"/>
        <path class="cls-4" d="M75.49,1365.65c-6.03,1.67-13.57-2.74-13.57-10.47l-.24-217.28c0-7.91,6.07-12.65,12.79-13.89l40.72-7.55c2.6-.48,5.51.06,6.6,1.31,1.47,1.67,2.79,4.08,2.79,7.27l.06,71.28c0,2.74,1.14,10.66,3.31,10.3l49.97-8.33.31-83.04c.02-6.46,4.2-11.06,10.49-12.18,10.08-1.8,42.24-8.31,47.74-3.93,1.65,1.31,2.94,4.03,2.94,7.33l-.03,217.66c0,6.64-4.12,10.97-10.06,12.02l-39.39,6.96c-2.67.47-5.46.63-7.24-.21-2.18-1.04-4.23-4.31-4.25-7.65l-.53-81.37-51.33,7.47c-3.23,25.44-1,49.39-.96,74.24.04,28.09-16.51,20.78-50.11,30.08Z"/>
        <path class="cls-4" d="M950.32,1291.67c2.32,4.19.89,9.11-.34,11.34-1.68,3.05-6.42,4.61-10.64,3.94-30.77-4.9-47.31,2.09-55.96-12.2-16.46-27.18-28.84-55.64-47.98-83.59-4,26.17.09,49.9-1.89,74.25-.64,7.9-5.33,12.74-13.36,12.73-13.89-.03-27.52-.96-41.46-2.48-4.1-.45-7.62-4.32-7.64-8.91l-.6-208.4c-.02-7.29-1.64-18.63,6.69-20.98,14.78-4.16,31.11-.82,46.11-.48,18.58-3.4,4.95,80.41,10.92,96.6l48.27-81.5c3.3-5.58,8.42-9.1,15.58-8.7l40.47,2.29c3.69.21,7.18,2.28,9.29,4.83,1.73,2.1,1.43,6.54-.73,10.16l-51.21,85.81c-5.73,9.59-5.94,16.06-.55,25.79l55.03,99.5Z"/>
        <path class="cls-4" d="M333.79,1279.81c-10.78,4.25,1.1,41.26-24.42,44.15l-38.44,4.34c-3.63.41-7.22-1.01-9.09-3.14-2.04-2.32-2.04-5.43-1.1-9.38l51.57-218c2.49-10.54,8.33-15.65,19.14-16.86l59.92-6.68c8.77-.98,12.89,4.14,15,11.67l57.72,206.35c2.14,7.65-2.25,16.29-10.71,16.38-14.24.15-29.67,4.88-43.59,2.22-13.06-2.49-8.91-38.65-18.81-38.17-18.39.89-38.7-.17-57.19,7.12ZM381.25,1220.78l-20.82-74.33-19.08,77.86c14.61.79,26.51-1.47,39.9-3.53Z"/>
        <path class="cls-4" d="M1101.24,1222.26c-1.66,13.66-51.02-3.77-66.9-.52-2.38,14.09-3.71,27.99.61,41.95l80.43,11.51c5.51.79,9.68,4.91,10.12,10.44,1.38,17.21,5.38,43.16-12.92,40.91l-128.56-15.81c-6.27-.77-11.39-6.37-11.39-12.89l-.17-215.33c0-7.13,6.26-12.31,12.79-11.51l126.65,15.63c5.85.72,11.96,2.8,12.73,9.15,1.37,11.3,5.04,45.49-11.77,43.33l-78.52-10.07c-1.98,13.62-2.76,26.93-.08,40.38l66.33,9.6c2.34,14.88,2.39,29,.65,43.23Z"/>
      </g>
      <g>
        <path class="cls-4" d="M736.94,1017.87c-.33,7.89-9.46,9.2-13.67,9.28-6.3.12-13.89.24-16.27-7.38-3.1-9.93,2.23-25.92-2.08-34.71-2.88-5.87-21.49-6.11-23.9-.18-3.93,9.67,1.18,26.74-2.43,37.19-2.32,6.72-25.69,8.17-26.24,1.16-2.67-35.02-3.82-73.07-1.24-108.75.75-10.36,24.25-9.35,27.16-1.84,4.91,12.67-3.22,27.77,2.87,39.15,3.24,6.05,19.92,2.15,25.07.6,1.95-13.68-3.02-26.04,1.87-38.5,2.52-6.42,10.63-6.65,16.24-5.44,4.46.96,12.87,4.06,12.98,11.21.49,32.51,1.05,64.61-.36,98.19Z"/>
        <path class="cls-4" d="M787.71,982.97c-7.15,1.91-6.74,17.94-.04,20.23,12.24,4.2,23.55-.89,35.94,2.5,5.68,1.56,8.5,18.72,2.1,19.9-20.95,3.84-41.75.04-62.6,1.62-5.6.42-9.66-4.67-9.5-9.84,1-32.42,1.01-63.83.17-96.28-.16-6.16,4.79-10.21,11.25-9.78,20.16,1.35,40.17,2.21,60.12,4.9,5.44.73,6.21,8,6.17,11.32-.37,30.46-60.83-8.33-47.26,27.02,4.39,11.44,30.46-1.45,35.72,10.33,1.91,4.26,3.76,13.23-2.01,16.08-9.16,4.53-19.17-.92-30.06,1.99Z"/>
        <path class="cls-4" d="M610.02,1023.96c-9.53,5.25-20.68,4.86-30.16.31l-.4-83.93c-7.61-1.74-15.71,1.04-22.5-1.82-5.69-2.39-7.24-19.97.21-21.4,24.85-4.8,50.82-7.25,76.79-4.64,6.61.67,6.23,20.84.29,23.46-7.23,3.18-16.27-.33-24.13,2.55l-.09,85.47Z"/>
      </g>
    </g>
    <g>
      <path class="cls-12" d="M453.14,734.52c2.16-1.07,3.15-1.51,3.52-2.08.73-1.16.64-3.05-.31-3.5-1.28-.61-3.08-.3-5.03.41l-163.9,60.2c-7.65,2.81-14.16,1.19-21.11-2.23l-36.47-17.92,192.11-63.61c82.59-27.35,161.05-61.66,237.54-102.39,1.51-.8,1.99-1.98,2.72-2.13.96-.2.36-4.43-1.13-4.01-45.21,12.8-90.27,23.43-137.12,27.56-29.33,2.58-55.5-6.2-72.23-31.62,15.21-1.18,116.5-22.58,119.01-30.06.45-1.35-1-2.15-3.46-1.92-54.57,5.24-107.68,12.29-163.28,13.22-20.24-13.54-35.71-31.58-51.84-51.49,54.15,3.06,107,2.33,160.76,1.67,1.28-.02.85-4.83-1.21-5.16l-184.99-29.19c-15.07-18.87-26.99-38.6-38.01-61.06l203.48,37.83c1.73.32,2.62,1.18,3.87,1.13,1.08-.04,2.14-1.2,1.98-2.63-.11-1-1.31-2.56-3.42-3.22l-226.5-70.91c-11.43-24.72-20.34-49.54-26.9-76.46,21,8.34,257.83,104.09,260.2,96.56.38-1.22.17-2.76-2.26-3.6l-277.27-144.46c-8.23-29.22-13.83-58.04-17.99-88.6l134.69,83.3c12.29,8.24,150.48,83.69,153.33,78.59.39-.71.42-2.55-1.12-3.64l-150.31-106.55-137.08-100.85,6.08-83.96,392.91,288.76,84.94,58.07c32.96,78.09,89.47,158.11,177.62,178.85-21.42-22.49-40.76-40.12-58.16-64.24,14.21,2.55,26.95-2.18,39.72-.92l53.54,5.3c42.18,4.18,159.38,28.74,160.88,84.4l28.35,19.76c8.48,5.91,16.22,15.21,15.78,26.27-.48,11.9-8.01,21.62-16.55,29.89-1.79-8.52-7.81-14.38-16.56-17.29-58.82-19.57-121.74-13.42-177.71,13.33-31.32,14.97-60.76,28.59-93.79,39.41-67.07,21.97-136.36,26.96-205.78,14.07-2.19-.41-4.01.04-4.5,1.4s.12,2.88,2.06,3.54l30.02,10.27c-28.74,35.41-85.27,114.3-137.66,100.46,20.28-25.47,41.92-49.62,60.73-79.38-26.63,10.9-77.69,68.28-99.04,78.05-15.84,7.25-34.58-.47-50.16-4.5l106.95-83.02c-12.15-3.05-20.92,5.42-29.99,10.91l-95.5,57.72c-20.73,12.53-40.8-.56-68.05-7.15l143.63-71.21ZM1007.31,590.87c3.66-1.24,26.56,1.26,17.16-4.27-.82-.48-1.68-2.74-3.35-3.3-31.14-10.41-62.18-19.08-95.39-25.26.3,15.08,25.45,8.47,29.98,32.03,1.89,9.83,10.67,17.04,18.89,19.01,26.29,6.3,27.32-16.37,32.72-18.2Z"/>
      <path class="cls-9" d="M914.45,372.79c2.08,2.66,8.63,4.37,7.7,2.75l-95.14-166.17,30.18-54.25,115.53,192.03c1.29,2.15,2.12,3.25,3.77,2.4,2-1.04,1.54-2.27.47-4.68l-97.87-220.84,40.55-48.6c27.34,76.56,50.82,152.1,89.72,224.96-17.61-87.22-44.99-167.34-66.23-250.69-1.62-6.34,3.52-10.1,7.69-13.65L993.03,0l84.56,394.14c1.55,7.24-2.3,11.46-7.05,15.11-34.27,26.35-64.61,56.12-90.58,90.6-4.52,6-9.9,5.31-16.51,3.03-56.5-19.45-115.23-27.07-175.39-26.64-25.05-49.61-16.55-95.34-8.11-148.27l101.81,91.54-92.41-121.48,22.43-56.5,102.67,131.24Z"/>
      <path class="cls-1" d="M989.55,589.42c-2.09,7.08-8.61,7.27-13.29,5.47-4.17-1.6-7.94-6.12-7.74-11.87,7.25,1.57,13.22,3.19,21.04,6.4Z"/>
    </g>
  </g>
  <g>
    <rect class="cls-8" y="1817.75" width="1388.28" height="7.4"/>
    <g>
      <path class="cls-4" d="M598.58,1957.91c0,35.85-29.06,64.92-64.92,64.92s-64.92-29.06-64.92-64.92,29.06-64.92,64.92-64.92,64.92,29.06,64.92,64.92ZM522.33,1926.66c4.17-3.09,5.3-8.17,2.89-11.85-7.29-11.14-24.89,3.47-31.42,11.68-3.1,3.9-2.03,8.88.79,11.36,6.95,6.11,18.4-4.27,27.74-11.19ZM573.74,1936.86c1.58-2.17,2.51-6.15.34-9.36-7.89-11.66-27.86-24.08-32.58-11.42-3.62,9.71,25.34,30.26,32.24,20.78ZM547.89,1975.56c1.54-7.02,9.35-16.11,6.25-23.45-2.42-5.74-13.88-13.84-20.11-14.18-8.45-.46-15.61,9.33-21.49,13.6.64,9.41,3.61,16.16,7.37,24.23,9.69.72,17.91,1.2,27.98-.2ZM488.82,1952.39c-9.97,1.87-4.08,24.29,3.01,34.03,2.56,3.51,7.02,4.07,9.9,2.17,7.88-5.21-1.53-38.33-12.91-36.2ZM578.78,1952.52c-12.27-1.71-22.14,32.99-11.84,36.99,12.13,4.71,23.83-35.31,11.84-36.99ZM548.57,2005.53c3.72-3.02,6.89-10.92,1.84-12.86-9.91-3.81-23.35-3.91-33.38.06-5.21,2.06-1.41,11.08,2.66,12.95,9.09,4.19,19.11,4.04,28.88-.15Z"/>
      <path class="cls-4" d="M1295.83,1958.52c0,34.31-27.81,62.12-62.12,62.12s-62.12-27.81-62.12-62.12,27.81-62.12,62.12-62.12,62.12,27.81,62.12,62.12ZM1259.46,1916.83c-11.36-7.85-25.58-9.64-39.59-5.94-4.84,1.28-4.33,14.73-.3,13.78,12.11-2.86,25.63-8.4,39.89-7.84ZM1221.82,1976.19c16.56-21.15-14.92-16.64-17.54-56.34-5.5,2.5-11.54,7.75-11.13,14.44,1.1,17.92,12.69,33.69,28.66,41.9ZM1281.62,1948.81c1.55-24.11-42.29-21.67-56.88-10.27-3.49,2.73,6.59,13.06,10.88,11.49,15.41-5.63,29.6-6.47,46-1.22ZM1214.22,1986.59c-13.57-8.77-22.38-18.41-29.01-31.7-1.8,14.7,2.94,30.22,14.47,38.99,4.78,3.64,12.56-2.93,14.54-7.29ZM1234.46,2005.75c14.76-11.33,20.53-29.46,21.08-46.47-25.78-4.28-8.21,22.03-40.44,44.13,5.09,3.07,13.3,6.99,19.36,2.34ZM1281.63,1965.86c-.03-5.53-9.53-6.97-14.05-7.14.94,15.46-4.6,27.83-11.02,43.1,14.26-6.09,25.15-20.72,25.07-35.96Z"/>
      <path class="cls-4" d="M951.83,1957.92c0,32.69-26.5,59.2-59.2,59.2s-59.2-26.5-59.2-59.2,26.5-59.2,59.2-59.2,59.2,26.5,59.2,59.2ZM896.35,1945.49l23.38-24.04c-7.71-6.58-17.15-8.88-26.76-9.41,1.51,19.13-12.08,26.34-4.49,33.39,1.46,1.35,5.15,2.86,7.87.07ZM875.54,1930.43c2.65-4.99,4.34-9.77,3.97-15.85-5.8.81-9.78,3.62-13.81,6.86,2.65,3.79,4.95,6.16,9.84,8.99ZM865.16,1940.56c-2.72-4.11-5.46-6.64-9.38-9-3.44,3.93-5.45,8.19-6.61,13.21,5.96.22,11.27-.66,15.98-4.21ZM939.14,1957.04c-1.27-9.33-3.54-18.25-9.96-26-9.26,12.08-34.3,25.24-22.21,32.62,6.18,3.77,14.77-6.92,32.17-6.62ZM856.35,1985.45c8.72-10,18.33-16.63,25.28-26.31,2.12-2.95-4.85-9.21-7.89-7.69-8.95,4.45-16.7,7.39-27.84,7.81,1.8,9.3,3.24,18.06,10.44,26.2ZM892.3,2003.86c-.07-10.95,1.89-16.8,5.63-23.81,1.65-3.05,1.38-6.32-.59-8.55-1.19-1.35-4.6-4.24-6.77-2.07l-24.99,25.1c8.07,6.73,17.26,9.53,26.72,9.33ZM929.41,1984.8c3.65-4.05,5.89-8.52,5.84-13.94-5.74.39-10.51,1.32-15.25,4.28,2.43,4.58,5.17,7.46,9.41,9.66ZM919.21,1994.39c-3.18-3.79-5.51-6.33-9.31-8.77-2.75,4.76-4.95,9.35-4.08,15.65,5.83-.4,9.95-3.54,13.39-6.88Z"/>
      <path class="cls-4" d="M218.02,1957.87c0,35.91-29.11,65.02-65.02,65.02s-65.02-29.11-65.02-65.02,29.11-65.02,65.02-65.02,65.02,29.11,65.02,65.02ZM200.51,1978.66c-8.8-7.76-18.6-12.09-30.98-12.12,3.69-13.96-1.51-23.64-15.4-27.4,5.84-10.61,8.12-20.82,6.22-33.01-23.09-2.04-44.57,9.43-54.95,30.62,8.22,8.26,18.3,12.38,31,12.57-3.84,14.42,1.88,23.42,15.26,27.69-6.01,10.73-8.89,21.43-4.22,32.53,22.67,1.98,43.89-10.06,53.08-30.87ZM192.04,1947.3c3.81,6.37,1.23,16.33,11.56,16.75,3.71-21.83-8.75-43.92-29.03-53-5.81,9.14,5.44,12.96,6.74,19.4.87,4.3-5.33,9.54-1.9,13.44,2.76,3.13,10.94.59,12.63,3.41ZM125.26,1971.54c-3.62-3.06-9.68-.08-12.55-3.73-.58-7.18-1.73-15.08-10.5-15.98-3.58,22.05,8.84,44.12,29.67,53.25,3.76-8.88-2.46-14.31-9.11-18.87,2.25-4.45,7.16-10.72,2.49-14.67Z"/>
      <path class="cls-4" d="M1059.23,1963.64c-.86,9.05,40.29,4.04,40.57,29.43.07,6.19-2.86,12.44-9,16.18-35.57,21.7-82.33,5.36-82.54-16.21-.17-16.9,25.88-23.71,40.97-25.34l.33-62.59c.02-2.96,1.39-5.84,3.22-7.34,1.62-1.33,5.54-1.96,8.54-.66l47.73,20.71c3.26,1.41,5.79,4.57,6.46,7.31.77,3.16-1.58,7.26-5.27,9.03l-47.54,22.78c-2.48,1.19-3.3,4.98-3.47,6.7ZM1102.51,1926.33l-42.26-18.22c-1.26,13.09-1.48,25.31,0,38.57l42.26-20.35ZM1059.53,1978.55c-.45,5.56,1.1,15.22-4.63,15.96-6.67.86-5.83-9.81-5.37-15.78-8.68-1.03-31.97,4.96-30.4,15.55,2.76,18.61,66.02,19.08,70.23.13,2.18-9.8-21.68-17.05-29.83-15.86Z"/>
      <g>
        <path class="cls-4" d="M348.61,2023.15l-20.26-43.52c-34.11,4.68-39.18-17.48-51.33-47.11-4.08-9.94-.09-20.61,9.6-25.16,19.87-9.33,46.22-25.68,55.9-2.92l13.12,30.84c6.34,14.9-1.6,28.84-14.08,38.58l17.94,42.79c1.67,3.99-9.16,10.22-10.89,6.5ZM343.32,1948.11c-.47-15.73-9.83-29.6-16.51-42.98-14.16,5.05-25.2,9.37-38.01,16.97,4.09,14.08,8.86,28.94,17.78,39.86,5.45,6.68,15.35,5.43,21.6,3.02s15.44-6.89,15.14-16.86Z"/>
        <path class="cls-4" d="M412.18,1933.57c0,12.02-9.75,21.77-21.77,21.77s-21.77-9.75-21.77-21.77,9.75-21.77,21.77-21.77,21.77,9.75,21.77,21.77ZM398.46,1933.62c0-4.46-3.61-8.07-8.07-8.07s-8.07,3.61-8.07,8.07,3.61,8.07,8.07,8.07,8.07-3.61,8.07-8.07Z"/>
      </g>
      <g>
        <path class="cls-4" d="M702.49,2019.35c-13.46,4.22-25.02-3.86-28.77-15.63l-19.27-60.48c-3.78-11.85,4.09-23.86,15.83-27.61l58.99-18.84c12.41-3.96,25.21,2.26,29.29,14.77,6.61,20.27,13.53,39.96,19.12,60.58,3.37,12.43-3.51,24.72-15.37,28.44l-59.83,18.76ZM701.53,2007.27l56.99-18.09c6.31-2,9.51-8.21,7.47-14.66l-18.21-57.63c-2.36-7.46-8.65-10.89-16.26-8.46l-57.48,18.43c-6.97,2.23-9.51,8.7-7.39,15.37l18.29,57.66c2.22,7,8.74,9.87,16.59,7.38Z"/>
        <circle class="cls-3" cx="746.58" cy="1973.59" r="10.75"/>
        <circle class="cls-15" cx="731.92" cy="1927.61" r="10.79"/>
        <circle class="cls-5" cx="700.58" cy="1988.31" r="10.75"/>
        <circle class="cls-10" cx="685.92" cy="1942.3" r="10.81"/>
        <circle class="cls-13" cx="716.32" cy="1958" r="10.81"/>
      </g>
    </g>
  </g>
</svg>